<svg width="160" height="160" viewBox="0 0 160 160" fill="none" xmlns="http://www.w3.org/2000/svg">
<path d="M110 60C110 67.9565 106.839 75.5871 101.213 81.2132C95.5871 86.8393 87.9565 90 80 90C72.0435 90 64.4129 86.8393 58.7868 81.2132C53.1607 75.5871 50 67.9565 50 60C50 52.0435 53.1607 44.4129 58.7868 38.7868C64.4129 33.1607 72.0435 30 80 30C87.9565 30 95.5871 33.1607 101.213 38.7868C106.839 44.4129 110 52.0435 110 60Z" fill="#6C6C6C"/>
<path fill-rule="evenodd" clip-rule="evenodd" d="M0 80C0 58.7827 8.42855 38.4344 23.4315 23.4315C38.4344 8.42855 58.7827 0 80 0C101.217 0 121.566 8.42855 136.569 23.4315C151.571 38.4344 160 58.7827 160 80C160 101.217 151.571 121.566 136.569 136.569C121.566 151.571 101.217 160 80 160C58.7827 160 38.4344 151.571 23.4315 136.569C8.42855 121.566 0 101.217 0 80ZM80 10C66.8178 10.0007 53.9037 13.7236 42.744 20.7403C31.5844 27.7569 22.6328 37.7821 16.9196 49.6619C11.2065 61.5418 8.96386 74.7934 10.45 87.8916C11.9361 100.99 17.0905 113.402 25.32 123.7C32.42 112.26 48.05 100 80 100C111.95 100 127.57 112.25 134.68 123.7C142.909 113.402 148.064 100.99 149.55 87.8916C151.036 74.7934 148.794 61.5418 143.08 49.6619C137.367 37.7821 128.416 27.7569 117.256 20.7403C106.096 13.7236 93.1822 10.0007 80 10Z" fill="#6C6C6C"/>
</svg>
